<svg width="106" height="188" viewBox="0 0 106 188" fill="none" xmlns="http://www.w3.org/2000/svg">
    <path d="M29.6 83.6061C30.8 82.6061 31 81.3061 31.2 80.0061C32 74.1061 32.8 68.3061 33.6 62.4061C35.1 51.6061 36 40.6061 38.4 29.9061C39.8 23.6061 41.8 17.4061 45.2 11.8061C46.8 9.10611 48.8 6.50611 51 4.00611C52.1 2.80611 53.6 1.80611 55 1.00611C59.2 -1.19389 63.2 0.306114 65.1 4.60611C66.5 7.70611 66.9 11.1061 67.1 14.4061C67.5 21.4061 67 28.3061 66.1 35.2061C65.4 40.7061 64.9 46.3061 64.5 51.9061C64 58.9061 63.6 65.9061 63.2 73.0061C63 75.9061 63.1 78.8061 64.1 81.5061C64.5 82.7061 64.9 84.2061 66.3 84.4061C67.6 84.5061 68.2 83.1061 68.8 82.1061C71 78.1061 73.1 74.1061 75.4 70.1061C77.1 67.2061 78.8 64.3061 80.8 61.6061C82.4 59.4061 84.4 57.5061 86.3 55.6061C87.4 54.6061 88.7 53.8061 90.1 53.2061C94 51.4061 97.5 52.5061 99.9 56.0061C102.7 60.1061 103.2 64.6061 102.4 69.3061C101.2 76.9061 98.3 83.7061 94 90.0061C91 94.4061 87.5 98.5061 83.4 102.006C82.4 102.806 81.5 103.706 80.5 104.606C73.6 110.406 68.6 117.706 64.2 125.406C61.8 129.606 61.1 134.206 60.4 138.906C59.5 145.806 60 152.606 60 159.506C60 164.806 60.1 170.106 60.1 175.306C60.1 177.306 59.8 179.306 59.5 181.206C59.2 182.806 58.3 184.206 56.8 185.006C52.9 187.206 48.8 188.306 44.4 187.006C41.1 186.106 39.2 183.906 38.8 180.606C38.6 179.006 38.7 177.406 38.8 175.806C38.9 173.406 39.2 171.006 39.1 168.606C38.9 161.206 38.7 153.906 38.4 146.506C38.2 142.406 37.8 138.406 37.5 134.306C37.3 132.106 36.4 130.406 34.4 129.206C31.3 127.406 28.3 125.406 25.1 123.706C17.2 119.206 11.8 112.806 8.19999 104.406C4.39999 95.7061 2.09999 86.7061 0.999995 77.4061C0.199995 73.0061 -0.400005 68.0061 0.399995 63.1061C0.799995 60.8061 1.19999 58.5061 1.89999 56.3061C2.49999 54.2061 3.7 52.4061 5.29999 50.9061C8.09999 48.3061 11.9 48.2061 14.5 50.9061C16.1 52.5061 17.4 54.5061 18.5 56.6061C21.2 61.8061 22.9 67.4061 24.4 73.0061C25 75.3061 25.6 77.6061 26.3 79.9061C26.8 81.6061 27.6 83.0061 29.6 83.6061Z" fill="#4CA96D"/>
    <path fill-rule="evenodd" clip-rule="evenodd" d="M45.9304 7.79018C44.9724 9.38848 44.0318 10.9577 44.0318 12.7439C43.9318 14.8439 44.7318 16.1439 46.2318 16.7439C47.7318 17.2439 49.8318 16.4439 50.8318 15.0439C52.2318 12.9439 51.6318 8.4439 49.7318 6.8439C48.6318 5.8439 47.0318 5.8439 46.4318 6.9439C46.2674 7.22778 46.0986 7.50943 45.9304 7.79018ZM65.4113 17.1134C65.3494 17.336 65.2905 17.5477 65.2316 17.7439C65.2852 18.0922 65.3316 18.4118 65.3747 18.7085L65.3747 18.7087L65.3747 18.7088C65.4924 19.5192 65.5852 20.1583 65.7316 20.7439C66.1316 22.1439 66.9316 23.1439 68.4316 23.4439C70.0316 23.7439 71.2316 23.1439 72.2316 21.9439C73.3316 20.6439 73.5316 19.0439 73.3316 17.4439C73.2316 16.3439 72.9316 15.4439 71.6316 15.1439C71.2316 15.0439 70.9316 14.6439 70.7316 14.2439C69.6316 12.2439 67.7316 12.1439 66.5316 14.1439C65.969 15.1084 65.6648 16.202 65.4113 17.1133L65.4113 17.1134ZM0.03178 51.7439C-0.177647 49.7194 0.68505 48.1336 1.53123 46.5781C1.89719 45.9053 2.26006 45.2383 2.53178 44.5439C3.03178 43.5439 4.03178 43.4439 5.03178 44.0439C6.33178 44.9439 6.83178 46.2439 7.03178 47.7439C7.23178 49.1439 7.63178 50.4439 8.33178 51.7439C9.43178 53.5439 8.83178 56.4439 7.23178 57.9439C5.33178 59.7439 2.43178 59.3439 1.23178 56.8439C0.83178 55.7772 0.609558 54.6217 0.387335 53.4661C0.276224 52.8884 0.165113 52.3106 0.03178 51.7439ZM14.9319 119.944C15.2319 118.644 15.6319 116.944 16.2319 115.344C16.6319 114.444 17.3319 113.544 18.2319 113.044C19.2319 112.444 20.0319 111.944 20.8319 111.044C21.6319 110.044 22.7319 110.144 23.4319 111.244C23.9319 111.944 24.3319 112.844 24.3319 113.644C24.3319 115.344 24.3319 117.044 23.8319 118.644C23.39 120.235 22.6356 121.826 21.914 123.348C21.8191 123.548 21.7248 123.746 21.6319 123.944C20.9319 125.344 19.4319 126.044 18.0319 125.744C16.5319 125.444 15.6319 124.444 15.2319 123.044C15.0867 122.391 15.0469 121.738 14.9978 120.932L14.9978 120.932L14.9978 120.932C14.9792 120.627 14.9593 120.3 14.9319 119.944ZM71.978 118.471L71.9778 118.471L71.9774 118.47C71.8224 118.292 71.6711 118.118 71.5319 117.944C71.9319 115.844 71.7319 114.944 70.4319 114.244C69.3319 113.744 68.0319 114.044 67.0319 115.144C66.9819 115.194 66.9319 115.269 66.8819 115.344L66.8818 115.344C66.8318 115.419 66.7818 115.494 66.7319 115.544C65.0319 118.544 64.6319 121.744 66.0319 124.944C66.7319 126.644 68.4319 127.544 70.0319 127.344C71.7319 127.144 73.3319 125.744 73.7319 124.044C74.1319 122.444 73.8319 120.944 72.8319 119.544C72.5713 119.153 72.2683 118.805 71.9781 118.471L71.978 118.471ZM105.432 60.3439C105.375 60.6545 105.327 60.981 105.277 61.3144L105.277 61.3145C105.151 62.1621 105.019 63.0545 104.732 63.8439C104.132 65.4439 102.732 66.3439 101.232 66.1439C99.8317 65.9439 98.7317 64.8439 98.4317 63.2439C98.3317 62.4439 98.4317 61.6439 98.5317 60.8439C98.5317 60.3208 98.5641 59.8138 98.5963 59.31L98.5963 59.3098C98.6441 58.5617 98.6915 57.8207 98.6317 57.0439C98.5317 55.4439 98.9317 54.3439 100.132 53.8439C101.232 53.3439 102.732 53.5439 103.632 54.6439C104.232 55.3439 104.732 56.2439 105.032 57.1439C105.051 57.3172 105.07 57.4979 105.09 57.6853L105.09 57.6855C105.174 58.4714 105.27 59.3751 105.432 60.3439ZM22.4319 81.5439C23.6319 78.8439 21.2319 75.2439 18.2319 75.2439C17.1319 75.1439 16.1319 75.4439 15.8319 76.5439C15.2319 78.6439 14.7319 80.8439 14.5319 83.0439C14.3319 84.8439 15.4319 86.0439 16.9319 86.4439C18.4319 86.8439 19.9319 86.2439 20.8319 84.7439C21.4319 83.7439 21.9319 82.6439 22.4319 81.5439ZM97.0317 91.2439C96.8317 92.8439 96.4317 94.2439 95.3317 95.4439C93.3317 97.5439 90.2317 97.1439 88.9317 94.6439C87.8317 92.5439 87.9317 90.3439 89.1317 88.3439C90.0317 86.8439 91.4317 86.4439 93.0317 87.0439C93.2586 87.1006 93.4533 87.2217 93.6341 87.3342C93.772 87.4199 93.9018 87.5006 94.0317 87.5439C94.2358 87.6119 94.4977 87.6568 94.7624 87.7022C95.2759 87.7902 95.7997 87.88 95.9317 88.1439C96.4228 88.8806 96.6459 89.7514 96.8753 90.6464C96.9261 90.8448 96.9772 91.0444 97.0317 91.2439ZM40.3967 112.439C40.535 112.471 40.6798 112.506 40.8318 112.544C40.9587 112.471 41.0955 112.399 41.2368 112.324C41.8747 111.986 42.6043 111.599 42.9318 110.944C43.5318 109.944 44.0318 108.644 44.2318 107.444C44.3051 107.077 44.2843 106.697 44.2631 106.309C44.2264 105.637 44.1884 104.941 44.6318 104.244C44.8318 103.944 44.5318 102.944 44.2318 102.744C43.1318 102.144 41.9318 101.544 40.6318 101.144C40.2318 101.044 39.5318 101.344 39.3318 101.644C39.1769 101.861 39.0197 102.077 38.8619 102.295L38.8617 102.295L38.8616 102.295L38.8615 102.296L38.8614 102.296C38.0003 103.483 37.1233 104.692 36.5318 106.044C35.9318 107.444 37.5318 111.244 38.9318 111.944C39.3367 112.187 39.8072 112.299 40.3965 112.439L40.3965 112.439L40.3966 112.439L40.3967 112.439ZM48.4319 78.6439C48.5319 80.5439 47.6319 81.9439 46.3319 83.0439C44.3319 84.9439 41.5319 84.2439 40.4319 81.7439C39.5319 79.6439 40.3319 76.1439 42.0319 74.6439C43.8319 73.0439 47.0319 73.8439 47.9319 76.2439C48.2319 77.0439 48.3319 77.8439 48.4319 78.6439ZM64.7319 44.7439C64.7319 46.2439 64.2319 47.7439 63.0319 48.8439C61.6319 50.1439 59.4319 50.3439 57.9319 49.1439C56.4319 48.0439 56.1319 46.3439 57.0319 44.4439C57.4319 43.5439 57.7319 42.6439 58.0319 41.7439C58.5319 40.2439 59.7319 39.4439 61.3319 39.8439C63.2319 40.3439 64.7319 42.3439 64.7319 44.7439ZM84.4318 72.9439C82.3318 73.0439 80.7318 71.2439 81.3318 69.1439C81.8318 67.4439 82.7318 65.7439 83.8318 64.3439C85.1318 62.7439 86.7318 63.2439 88.1318 65.1439C89.2318 66.7439 88.8318 68.3439 88.1318 69.9439C87.3318 71.8439 86.0318 72.9439 84.4318 72.9439ZM66.5318 99.2439C65.1318 99.2439 64.1318 100.644 64.1318 102.544C64.0318 104.844 65.3318 106.444 67.2318 106.444C68.8318 106.344 70.4318 104.744 70.5318 102.944C70.5318 100.944 68.6318 99.1439 66.5318 99.2439Z" fill="black"/>
</svg>
