<svg width="204" height="229" viewBox="0 0 204 229" fill="none" xmlns="http://www.w3.org/2000/svg">
<path fill-rule="evenodd" clip-rule="evenodd" d="M105.156 70.8318C105.396 70.897 105.636 70.9618 105.876 71.0271C106.385 69.0517 106.893 67.0774 107.401 65.1029C107.233 65.0569 107.064 65.0113 106.896 64.9658C106.316 66.9214 105.736 68.8771 105.156 70.8318ZM110.489 51.8874C110.68 51.9887 110.872 52.0906 111.062 52.1917C112.117 49.5461 113.172 46.9009 114.228 44.2546C114.027 44.1722 113.825 44.088 113.626 44.0048C112.58 46.6326 111.535 49.2596 110.489 51.8874ZM134.957 68.832C134.929 69.8244 133.285 69.9409 133.828 71.3415C134.303 72.5683 134.384 73.9493 134.649 75.315C136.27 73.28 135.309 71.0473 134.957 68.832ZM140.564 79.9324C139.684 79.3692 139.327 79.1396 139.092 78.9889C137.932 79.9042 141.121 81.5535 138.795 82.0976C138.55 83.5466 138.465 84.8696 138.087 86.1032C137.261 88.7991 136.37 91.4831 135.327 94.1019C134.919 95.1284 134.021 95.9562 133.374 96.8948C133.144 97.2278 132.817 97.6363 132.846 97.9837C133.256 102.751 131.342 106.863 129.401 111.028C127.386 115.351 125.961 119.976 123.675 124.137C121.745 127.648 119.768 131.476 114.611 131.62C112.008 131.692 109.361 129.442 109.882 126.858C110.055 126.002 110.07 125.074 109.952 124.208C108.879 116.277 107.827 108.344 106.635 100.431C105.599 93.5588 104.249 86.7311 103.304 79.8478C102.695 75.3994 103.586 71.0146 104.979 66.7593C105.831 64.1517 106.743 61.5638 108.054 59.0924C108.019 59.9327 107.984 60.7735 107.95 61.6141C108.097 61.6599 108.246 61.7057 108.393 61.7518C108.94 59.9733 109.486 58.1941 110.033 56.4152C109.876 56.3263 109.72 56.2378 109.563 56.1493C109.136 56.6213 108.709 57.0933 108.282 57.5664C108.138 57.5251 107.994 57.4841 107.851 57.4424C108.049 56.5144 108.107 55.5266 108.468 54.6662C111.899 46.4808 115.378 38.3159 118.852 30.1486C119.311 29.0702 119.911 28.0422 120.275 26.9359C120.96 24.8579 123.194 22.2035 124.574 22.3829C126.862 22.6806 128.962 23.5681 129.794 25.9919C130.743 28.7483 131.87 31.5003 132.341 34.3506C133.057 38.6921 134.799 42.7555 135.416 47.0976C135.515 47.794 135.323 48.532 135.42 49.2292C135.514 49.9133 135.766 50.5866 136.02 51.2371C136.549 52.5922 137.231 53.8975 137.656 55.2822C138.193 57.0296 138.621 58.8211 138.943 60.6201C139.612 64.3713 140.203 68.137 140.759 71.9069C140.818 72.3055 140.402 72.7616 140.258 73.2077C140.12 73.6342 139.824 74.3406 139.984 74.4817C141.879 76.1411 139.388 77.861 140.564 79.9324Z" fill="black"/>
<path fill-rule="evenodd" clip-rule="evenodd" d="M83.5199 86.4977C83.2094 86.5063 82.898 86.5147 82.5882 86.5229C82.7691 89.3795 82.9503 92.2368 83.1319 95.0947C83.3532 95.0847 83.5753 95.0761 83.7974 95.0675C83.7049 92.2109 83.6124 89.3543 83.5199 86.4977ZM76.5181 136.404C73.4589 133.833 71.1739 128.336 72.2431 125.971C71.6963 126.249 71.2157 126.494 70.6929 126.761C70.5359 126.616 70.3512 126.513 70.2664 126.357C67.2105 120.717 64.1014 115.104 61.1342 109.417C58.7131 104.776 56.4542 100.051 54.1367 95.3563C50.5786 88.1468 50.2997 80.5478 51.4774 72.7525C53.1468 61.7061 54.7781 50.658 58.0247 39.9163C58.7453 37.5331 59.1913 35.0691 59.8389 32.6619C60.1832 31.3806 60.7878 30.8592 62.4117 31.2311C65.0842 31.8445 66.3459 33.661 67.3183 35.832C71.0707 44.2028 74.7226 52.6184 78.4876 60.9836C80.772 66.059 83.2593 71.0436 85.5171 76.1308C86.1374 77.5297 86.1811 79.1754 86.6357 80.6621C87.1061 82.2039 87.8399 83.6631 88.3104 85.2048C90.4889 92.3569 89.6511 99.5031 88.0963 106.644C86.8441 112.393 85.7148 118.169 84.356 123.892C83.651 126.863 82.8254 129.866 81.5346 132.613C80.951 133.855 79.0972 134.505 77.8218 135.427C77.4252 135.715 77.0378 136.014 76.5181 136.404Z" fill="black"/>
<path fill-rule="evenodd" clip-rule="evenodd" d="M165.889 97.8836C166.978 100.803 168.239 104.45 169.694 108.018C171.462 112.354 173.261 116.688 175.307 120.896C176.472 123.293 176.703 125.659 176.176 128.111C175.185 132.712 173.759 137.23 173.03 141.871C172.217 147.05 169.907 151.604 168.083 156.371C166.098 161.564 164.144 166.77 162.085 171.933C161.351 173.774 160.344 175.504 159.477 177.292C157.961 180.418 154.921 181.404 152.006 182.432C151.395 182.647 150.096 182.014 149.656 181.39C148.841 180.231 148.255 178.837 147.871 177.459C145.277 168.151 142.822 158.805 140.194 149.507C138.846 144.741 138.536 140.004 139.646 135.205C141.642 126.571 143.503 117.899 145.732 109.328C147.205 103.667 149.879 98.4571 152.813 93.4116C155.11 89.4616 159.868 89.1797 162.633 92.8942C163.66 94.2721 164.522 95.7735 165.889 97.8836Z" fill="black"/>
<path fill-rule="evenodd" clip-rule="evenodd" d="M108.041 156.901C107.734 156.908 107.426 156.914 107.12 156.92C107.107 158.226 107.094 159.531 107.08 160.836C107.334 160.838 107.587 160.84 107.84 160.843C107.907 159.528 107.974 158.215 108.041 156.901ZM107.496 167.704C107.646 167.721 107.797 167.739 107.947 167.756C108.493 165.409 109.04 163.061 109.585 160.712C109.431 160.676 109.276 160.639 109.121 160.602C108.579 162.969 108.037 165.337 107.496 167.704ZM84.9782 161.427C85.2725 161.505 85.5658 161.583 85.8591 161.661C86.2251 159.504 86.592 157.347 86.9584 155.19C87.0762 155.226 87.1935 155.261 87.3112 155.296C86.5342 157.34 85.7563 159.383 84.9782 161.427ZM84.2607 170.193C84.2358 166.861 83.7081 163.431 84.2852 160.213C85.6378 152.671 87.3937 145.197 89.2331 137.761C90.4265 132.938 92.0286 128.221 93.523 123.48C93.6843 122.964 94.2872 122.329 94.7823 122.234C96.4326 121.914 98.4019 121.383 99.4419 123.22C101.285 126.473 102.874 129.871 104.513 133.236C106.101 136.497 107.628 139.788 109.162 143.076C111.654 148.418 113.807 153.922 113.845 159.859C113.863 162.701 112.886 165.555 112.254 168.377C111.587 171.359 110.883 174.337 110.029 177.267C109.357 179.568 108.424 181.788 107.627 184.052C106.995 185.846 106.243 187.617 105.809 189.462C104.625 194.483 102.907 199.262 100.136 203.616C99.5474 204.54 95.4916 206.255 94.5548 205.896C92.8525 205.243 92.5346 203.704 92.1303 202.107C91.0334 197.773 89.7535 193.485 88.5749 189.17C87.0895 183.726 85.6001 178.282 84.1971 172.819C83.9856 171.995 84.2345 171.057 84.2748 170.16C84.6634 170.324 85.0472 170.498 85.5661 170.736C85.5884 168.044 85.6098 165.472 85.6309 162.898C85.4057 162.892 85.1798 162.885 84.9539 162.879C84.8986 163.726 84.8666 164.574 84.783 165.417C84.6251 167.01 84.4363 168.601 84.2607 170.193Z" fill="black"/>
<path fill-rule="evenodd" clip-rule="evenodd" d="M53.7419 146.948C53.5564 146.975 53.3709 147.002 53.1858 147.029C53.5123 149.321 53.8392 151.613 54.1657 153.905C54.3394 153.877 54.5121 153.848 54.6852 153.819C54.3711 151.529 54.0564 149.239 53.7419 146.948ZM43.0703 142.743C42.8572 142.716 42.6432 142.69 42.4301 142.663C41.9496 145.375 41.4694 148.087 40.9892 150.8L41.5614 150.883C42.0652 148.169 42.5679 145.456 43.0703 142.743ZM50.4135 188.3C47.9036 182.152 45.7081 176.751 43.493 171.358C42.6073 169.203 41.7588 167.026 40.7499 164.929C38.0924 159.409 39.1323 153.812 40.315 148.144C41.1695 144.049 41.6295 139.878 42.4389 135.773C43.4172 130.809 44.4705 125.852 45.7253 120.948C46.1126 119.434 46.9239 117.899 49.0215 117.626C51.4762 117.307 53.6398 117.536 54.9822 119.786C57.4273 123.886 59.9161 127.972 62.0802 132.221C63.167 134.355 63.4363 136.891 64.3397 139.138C65.2373 141.369 66.5519 143.428 67.5222 145.634C68.2197 147.22 68.9584 148.888 69.1273 150.581C69.3337 152.655 69.212 154.839 68.7893 156.892C68.094 160.268 67.0503 163.58 66.1401 166.914C64.861 171.604 63.7774 176.344 61.324 180.659C60.5229 182.068 60.2711 183.769 59.6324 185.282C58.4736 188.024 55.8498 188.941 53.3253 189.541C52.3511 189.771 51.0549 188.598 50.4135 188.3Z" fill="black"/>
</svg>
