<svg width="111" height="181" viewBox="0 0 111 181" fill="none" xmlns="http://www.w3.org/2000/svg">
    <path d="M34.7145 6.04864C34.7645 9.99421 35.0641 13.9398 35.7134 17.8354C35.7633 17.9853 35.7633 18.1351 35.8133 18.2849C36.3127 20.9819 37.7112 22.9297 40.1085 24.2782C41.7067 25.1772 43.3548 25.9763 45.2028 26.276C47.9996 26.7754 50.8464 27.3248 53.6433 27.8742C54.4424 28.024 54.9918 28.5234 55.0917 29.2227C55.1916 29.8719 54.792 30.5212 54.0928 30.8708C53.6932 31.0207 53.2438 31.1205 52.8442 31.2704C50.4968 31.8697 48.1495 32.5689 45.9519 33.6677C42.4059 35.4157 39.8088 38.1127 38.3105 41.7586C36.5625 45.9539 35.3638 50.299 34.7645 54.794C34.6146 56.0926 34.4149 57.3911 34.265 58.6896C34.1651 59.5387 33.7156 60.0381 33.0164 60.0881C32.3172 60.188 31.7678 59.8384 31.4182 59.0892C31.2684 58.7396 31.1685 58.39 31.0686 58.0404C29.9698 54.3945 28.4216 50.9483 26.4738 47.652C26.0243 46.9528 25.5748 46.2036 25.0254 45.6043C22.5282 42.9573 19.8312 40.51 16.7347 38.5622C14.1875 36.964 11.3907 36.065 8.4939 35.4157C6.14653 34.9163 3.79917 34.4668 1.4518 34.0173C0.552804 33.8675 0.0533635 33.368 0.00341948 32.6688C-0.0465246 31.9196 0.452916 31.3203 1.35191 31.1205C1.60163 31.0706 1.90129 31.0206 2.20096 31.0206C3.59939 31.1705 4.89793 30.7709 6.19648 30.5712C8.84351 30.1217 11.3907 29.3226 13.9378 28.5234C15.2363 28.1239 16.4849 27.6245 17.7835 27.175C21.9788 25.6766 24.5259 22.6301 26.1241 18.6345C26.5237 17.5857 26.8234 16.4869 27.2729 15.4881C27.9221 13.9897 28.6213 12.4914 29.2706 10.9931C29.6702 10.144 30.1197 9.24505 30.3694 8.34606C30.9687 6.19847 31.5181 4.05087 32.1174 1.85334C32.2173 1.50373 32.3672 1.15412 32.517 0.754568C32.7168 0.255127 33.0664 -0.044537 33.6157 0.00540704C34.2151 0.0553511 34.5647 0.454903 34.6646 1.00429C34.7145 1.45378 34.7145 1.85334 34.7145 2.30283C34.7145 3.55143 34.7145 4.80003 34.7145 6.04864Z" fill="black"/>
    <path d="M34.7145 126.049C34.7645 129.994 35.0641 133.94 35.7134 137.835C35.7633 137.985 35.7633 138.135 35.8133 138.285C36.3127 140.982 37.7112 142.93 40.1085 144.278C41.7067 145.177 43.3548 145.976 45.2028 146.276C47.9996 146.775 50.8464 147.325 53.6433 147.874C54.4424 148.024 54.9918 148.523 55.0917 149.223C55.1916 149.872 54.792 150.521 54.0928 150.871C53.6932 151.021 53.2438 151.121 52.8442 151.27C50.4968 151.87 48.1495 152.569 45.9519 153.668C42.4059 155.416 39.8088 158.113 38.3105 161.759C36.5625 165.954 35.3638 170.299 34.7645 174.794C34.6146 176.093 34.4149 177.391 34.265 178.69C34.1651 179.539 33.7156 180.038 33.0164 180.088C32.3172 180.188 31.7678 179.838 31.4182 179.089C31.2684 178.74 31.1685 178.39 31.0686 178.04C29.9698 174.394 28.4216 170.948 26.4738 167.652C26.0243 166.953 25.5748 166.204 25.0254 165.604C22.5282 162.957 19.8312 160.51 16.7347 158.562C14.1875 156.964 11.3907 156.065 8.4939 155.416C6.14653 154.916 3.79917 154.467 1.4518 154.017C0.552804 153.867 0.0533635 153.368 0.00341948 152.669C-0.0465246 151.92 0.452916 151.32 1.35191 151.121C1.60163 151.071 1.90129 151.021 2.20096 151.021C3.59939 151.17 4.89793 150.771 6.19648 150.571C8.84351 150.122 11.3907 149.323 13.9378 148.523C15.2363 148.124 16.4849 147.624 17.7835 147.175C21.9788 145.677 24.5259 142.63 26.1241 138.635C26.5237 137.586 26.8234 136.487 27.2729 135.488C27.9221 133.99 28.6213 132.491 29.2706 130.993C29.6702 130.144 30.1197 129.245 30.3694 128.346C30.9687 126.198 31.5181 124.051 32.1174 121.853C32.2173 121.504 32.3672 121.154 32.517 120.755C32.7168 120.255 33.0664 119.955 33.6157 120.005C34.2151 120.055 34.5647 120.455 34.6646 121.004C34.7145 121.454 34.7145 121.853 34.7145 122.303C34.7145 123.551 34.7145 124.8 34.7145 126.049Z" fill="black"/>
    <path d="M89.7145 66.0486C89.7645 69.9942 90.0641 73.9398 90.7134 77.8354C90.7633 77.9853 90.7633 78.1351 90.8133 78.2849C91.3127 80.9819 92.7112 82.9297 95.1085 84.2782C96.7067 85.1772 98.3548 85.9763 100.203 86.276C103 86.7754 105.846 87.3248 108.643 87.8742C109.442 88.024 109.992 88.5234 110.092 89.2227C110.192 89.8719 109.792 90.5212 109.093 90.8708C108.693 91.0207 108.244 91.1205 107.844 91.2704C105.497 91.8697 103.149 92.5689 100.952 93.6677C97.4059 95.4157 94.8088 98.1127 93.3105 101.759C91.5625 105.954 90.3638 110.299 89.7645 114.794C89.6146 116.093 89.4149 117.391 89.265 118.69C89.1651 119.539 88.7156 120.038 88.0164 120.088C87.3172 120.188 86.7678 119.838 86.4182 119.089C86.2684 118.74 86.1685 118.39 86.0686 118.04C84.9698 114.394 83.4216 110.948 81.4738 107.652C81.0243 106.953 80.5748 106.204 80.0254 105.604C77.5282 102.957 74.8312 100.51 71.7347 98.5622C69.1875 96.964 66.3907 96.065 63.4939 95.4157C61.1465 94.9163 58.7992 94.4668 56.4518 94.0173C55.5528 93.8675 55.0534 93.368 55.0034 92.6688C54.9535 91.9196 55.4529 91.3203 56.3519 91.1205C56.6016 91.0706 56.9013 91.0206 57.201 91.0206C58.5994 91.1705 59.8979 90.7709 61.1965 90.5712C63.8435 90.1217 66.3907 89.3226 68.9378 88.5234C70.2363 88.1239 71.4849 87.6245 72.7835 87.175C76.9788 85.6766 79.5259 82.6301 81.1241 78.6345C81.5237 77.5857 81.8234 76.4869 82.2729 75.4881C82.9221 73.9897 83.6213 72.4914 84.2706 70.9931C84.6702 70.144 85.1197 69.2451 85.3694 68.3461C85.9687 66.1985 86.5181 64.0509 87.1174 61.8533C87.2173 61.5037 87.3672 61.1541 87.517 60.7546C87.7168 60.2551 88.0664 59.9555 88.6157 60.0054C89.2151 60.0554 89.5647 60.4549 89.6646 61.0043C89.7145 61.4538 89.7145 61.8533 89.7145 62.3028C89.7145 63.5514 89.7145 64.8 89.7145 66.0486Z" fill="black"/>
</svg>
