<svg xmlns="http://www.w3.org/2000/svg" width="583.913" height="355.479" viewBox="0 0 583.913 355.479">
  <path id="Path_7" data-name="Path 7" d="M772.582,587.171s-51.911-2.725-82.885-35.392-38.665-64.016-41.012-95.277c-5.239-69.779-202.306-42.763-202.306-42.763s-86.89,11-151.318,36.185S188.67,514.491,188.67,514.491s96.522,1.962,106.392,94.07c0,0,82.237-2.384,78.948,68.34,0,0,80.594-26.314,90.462,54.277,0,0,78.948-39.474,103.619,32.9,0,0,68.972-31.25,121.606,0,0,0,58.214-44.41,82.885-32.9Z" transform="translate(-188.67 -408.594)" fill="#81171b"/>
</svg>
