<svg width="100" height="138" viewBox="0 0 100 138" fill="none" xmlns="http://www.w3.org/2000/svg">
    <path fill-rule="evenodd" clip-rule="evenodd" d="M9.18285 109.393H7.13405C6.76289 109.963 6.37575 110.558 5.9854 111.161C5.6921 110.896 5.48093 110.707 5.16203 110.42C4.40266 110.846 3.6177 111.288 2.8466 111.721C2.75061 112.343 2.66849 112.876 2.58317 113.433C2.10429 113.162 1.72781 112.947 1.37479 112.747C0.889519 113.754 0.461838 114.639 3.05176e-05 115.597C0.128014 115.639 0.447975 115.748 0.870323 115.891V117.222C2.40612 117.749 3.57078 119.079 5.31029 118.623C5.41161 119.803 6.48988 120.191 7.17458 120.344C8.79784 120.704 10.1609 121.984 11.6881 122.014C13.4703 122.048 14.8227 123.028 16.3745 123.471C18.2366 124.003 20.1532 124.571 22.0004 125.284C23.8018 125.978 25.6949 126.886 27.7618 126.82C31.0297 128.715 34.8265 128.931 38.3471 130.01C41.0892 130.849 43.8547 131.895 46.81 132.112C47.8382 132.188 48.8183 133.253 49.8902 131.681C50.6698 133.108 51.587 133.896 53.1186 133.845C54.1936 133.81 55.3231 134.065 56.3566 134.407C59.0623 135.3 61.8822 135.584 64.6478 136.153C67.1872 136.676 69.798 136.856 72.2862 137.406C75.6394 138.148 78.9361 137.629 82.2466 137.84C82.83 137.878 83.4283 137.404 84.0415 137.313C84.706 137.215 85.5709 137.545 86.0285 137.228C86.6225 136.816 87.062 137.189 87.5462 137.093C88.2607 136.951 88.9636 136.746 89.8157 136.532C90.1293 135.98 91.1852 135.759 91.183 134.672C91.182 134.397 91.7046 133.874 91.9616 133.889C93.9091 134.001 94.3602 132.398 95.2028 131.045C95.5291 128.414 94.2482 126.57 91.7814 125.432C91.4571 125.282 91.1137 125.139 90.7649 125.083C89.3955 124.867 87.9344 124.913 86.6705 124.432C85.2808 123.904 83.9242 123.945 82.5281 123.909C81.1875 123.875 79.608 124.257 78.5734 123.675C77.4205 123.025 75.9818 124.054 75.1552 122.762C74.2465 123.72 73.3506 122.286 72.4452 122.748C71.4767 121.915 70.2726 122.363 69.2082 122.122C68.2217 121.899 67.2053 121.77 66.2582 121.521C63.1386 120.698 59.9785 120.212 56.7896 119.838C55.4073 118.629 53.4993 119.777 52.0147 118.709C50.7402 117.792 49.0327 117.959 47.5534 117.632C45.8726 117.259 44.1106 116.977 42.3829 116.695C40.7692 116.432 39.1822 115.987 37.5611 115.685C35.171 115.24 32.8929 114.205 30.4207 114.021C29.3797 112.794 27.7394 113.853 26.4969 112.918C25.4549 112.131 23.9116 111.997 22.6478 111.794C19.5623 111.301 16.8352 109.797 13.8361 109.144C13.1258 108.989 12.4166 108.825 11.5943 108.64C11.4855 109.352 11.4034 109.885 11.2743 110.728C10.548 110.265 9.96782 109.894 9.18285 109.393Z" fill="black"/>
    <path fill-rule="evenodd" clip-rule="evenodd" d="M57.7993 76.3187C57.9582 76.4776 58.0958 76.6152 58.2323 76.7528C58.6088 76.1715 58.9863 75.5913 59.4535 74.8714C59.638 75.394 59.7564 75.731 59.9462 76.2675C60.7994 76.163 61.9534 76.3571 62.556 75.8686C63.534 75.0772 64.1739 76.211 65.0229 75.9102C65.7929 75.6372 66.9117 75.9977 67.4717 75.5604C68.3846 74.8479 69.305 75.2468 70.1828 75.0218C71.0435 74.8021 71.8583 74.3989 72.7574 74.0502C73.2384 74.2016 73.8068 74.3808 74.5545 74.6154C74.835 74.0928 75.1123 73.5713 75.5997 72.6594C75.8972 73.6204 75.9964 73.9371 76.1553 74.4523C78.8227 72.9186 82.0202 73.7867 84.6897 72.444C84.7569 72.1389 84.8166 71.8755 84.9723 71.1791C85.2091 71.8702 85.3083 72.1635 85.4256 72.5037C86.1018 72.3256 86.826 72.1347 87.5789 71.9352C87.6291 71.4809 87.6792 71.0234 87.7528 70.3536C88.0301 70.5541 88.1997 70.6767 88.4556 70.8623C88.7724 70.7034 89.1371 70.52 89.6523 70.2619C89.8507 70.7098 90.0213 71.0948 90.1855 71.466C90.834 71.0084 91.4846 70.5488 92.2535 70.0059C92.2834 69.735 92.3335 69.2764 92.3997 68.6834C93.0684 69.0193 93.6688 69.3201 94.4431 69.7094C95.4617 68.2322 97.5446 67.5475 98.1984 65.5617C97.9307 65.2662 97.7419 65.0583 97.5521 64.8503C98.1088 64.2936 98.3648 64.4482 98.9556 65.7003C99.1444 65.7131 99.3342 65.7419 99.5209 65.728C99.5977 65.7227 99.6681 65.6246 99.9166 65.4358C99.7353 65.0199 99.5337 64.5581 99.3108 64.0461C99.4964 63.5672 99.7097 63.0169 99.9998 62.2703C99.2607 62.5391 98.8106 62.7012 98.2517 62.9049C98.4277 62.2117 98.5578 61.6966 98.7796 60.8241C97.76 61.2849 97.1265 61.5718 96.4034 61.8981C96.5709 62.104 96.7298 62.2981 96.9228 62.5348C96.4226 62.7887 95.9171 63.0468 95.2985 63.3625V61.4043C94.6383 61.0684 94.0784 60.7836 93.4758 60.4764C92.0968 61.0492 90.6921 61.6336 89.2577 62.2298C88.6167 61.9792 86.1594 62.2959 85.0459 62.8015C84.8497 62.6234 84.6471 62.4389 84.3431 62.1637C83.7522 62.4453 83.107 62.7524 82.4287 63.0756C82.6164 63.2889 82.7913 63.4905 82.9673 63.691C82.8382 63.7859 82.6622 64.0045 82.5652 63.9736C81.456 63.6291 80.4129 62.7823 79.2056 63.9107C78.9816 64.1197 78.1977 63.7347 77.6751 63.6152C75.2819 63.0692 73.0848 63.4105 71.1523 64.9644C70.7011 64.8417 70.2052 64.5932 69.7156 64.6028C69.1386 64.6135 68.2182 65.1393 68.0497 64.9377C67.1805 63.8947 66.7272 65.1649 66.0788 65.1724C65.4463 65.1809 64.8619 65.2172 64.1931 65.5211C63.0616 66.0373 61.7231 66.1461 60.456 66.3061C56.1963 66.8426 52.0379 67.7406 47.9264 69.0268C44.7524 70.0187 41.5187 70.8378 38.4674 72.1635C36.4122 73.0551 34.1778 73.8827 32.5631 75.3385C31.104 76.6514 29.3763 77.815 28.2383 79.69C28.3983 79.9406 28.5913 80.2446 28.8142 80.5955C28.6905 80.7394 28.5166 80.94 28.3161 81.1703C29.0008 81.8188 29.6962 82.4768 30.478 83.217C31.3664 82.9482 32.2943 82.5728 32.8148 81.293C32.9246 82.0267 33.0035 82.56 33.0899 83.1359H33.9186C34.0647 82.7563 34.1917 82.4224 34.3218 82.0811C34.6353 82.2806 34.9233 82.464 35.3147 82.7136C35.6059 82.496 35.8949 82.2784 36.1775 82.0673C36.6212 82.4779 37.0915 82.9162 37.5768 83.3652C38.2829 82.496 38.7745 81.7175 39.4347 81.1266C40.0757 80.5528 41.4153 81.1074 41.7192 79.6324C41.6019 79.45 41.4067 79.1482 41.1028 78.6778C41.7096 78.6469 42.2674 78.6181 43.0407 78.5787C42.6535 79.0127 42.4711 79.2186 42.085 79.6537C42.8209 79.6153 43.431 79.754 43.8448 79.53C44.8239 78.9999 45.8275 78.7184 46.8962 78.4283C47.903 78.1552 48.8682 78.0401 49.8792 77.9323C50.7783 77.8363 51.6497 77.494 52.5488 77.3905C53.498 77.2828 54.4888 77.4503 55.4188 77.2711C56.2475 77.1122 57.0165 76.645 57.7993 76.3187Z" fill="black"/>
    <path fill-rule="evenodd" clip-rule="evenodd" d="M75.9739 3.86021V1.41572C74.982 0.370525 73.8366 -0.138209 72.1077 0.0324354C71.9467 0.301201 71.6491 0.797137 71.2993 1.38266C69.3774 0.199881 68.6457 2.76702 67.1366 2.3596C64.9694 3.79515 63.3536 5.79596 61.131 7.04914C60.8057 7.23258 60.5742 7.5824 60.3023 7.85863C58.39 9.79652 56.2569 11.4528 54.0279 13.0185C52.4942 14.0968 51.1099 15.4033 49.7426 16.698C48.2505 18.1112 46.6944 19.4102 44.8803 20.3925C44.5539 20.5695 44.3278 20.929 44.0505 21.1999C42.9498 22.2781 41.9558 23.51 40.7101 24.3845C39.7065 25.0874 38.9653 26.0227 38.0769 26.8087C36.5411 28.1664 35.2644 29.8185 33.8939 31.3618C32.5149 32.9146 31.0943 34.4376 29.8145 36.0694C29.2812 36.7509 29.0647 37.6809 28.6893 38.5299C29.5468 39.2807 30.2688 39.9143 31.3823 40.8912C32.2046 41.3562 32.6173 39.8108 33.5889 39.4557C33.9078 39.6999 34.1936 39.9207 34.3888 40.07C35.5343 39.8332 36.6115 39.6103 38.1771 39.2861C41.3895 36.6571 45.1309 33.8649 48.6259 30.7346C50.2865 29.249 52.1625 27.8593 54.1655 26.6978C55.5968 25.8681 56.7145 24.4976 58.0114 23.4076C61.4477 20.5215 64.9001 17.5587 67.8043 14.164C70.5314 10.974 73.8685 8.26285 75.9739 3.86021Z" fill="black"/>
</svg>
